<svg width="378" height="60" viewBox="0 0 378 60" fill="none" xmlns="http://www.w3.org/2000/svg">
<path d="M74.6854 59.9057C62.5692 59.9057 53.7997 50.7641 53.7997 39.4115C53.7997 28.0588 62.5692 18.9172 74.6854 18.9172C85.2086 18.9172 92.782 25.3811 94.9344 34.1303H85.6892C84.0943 29.8738 80.1882 26.798 74.6873 26.798C67.5925 26.798 62.7301 32.0792 62.7301 39.4095C62.7301 46.7399 67.5925 52.0211 74.6873 52.0211C80.1882 52.0211 84.0943 48.9472 85.6892 44.6888H94.9344C92.782 53.4418 85.2086 59.9057 74.6854 59.9057Z" fill="black"/>
<path d="M120.364 18.9172C126.103 18.9172 130.886 21.834 133.118 24.9868V19.7057H141.882V59.1172H133.118V53.8361C130.886 56.9889 126.103 59.9057 120.364 59.9057C109.442 59.9057 101.152 50.6832 101.152 39.4115C101.152 28.1397 109.442 18.9172 120.364 18.9172ZM121.958 26.7999C114.863 26.7999 110.08 32.3172 110.08 39.4115C110.08 46.5057 114.863 52.023 121.958 52.023C129.052 52.023 133.836 46.5057 133.836 39.4115C133.836 32.3172 129.048 26.7999 121.958 26.7999Z" fill="black"/>
<path d="M154.562 19.7057H163.325V25.0659C165.717 21.1245 170.259 18.9172 175.443 18.9172C184.688 18.9172 190.668 25.3811 190.668 35.3911V59.1172H181.9V36.8099C181.9 30.5832 178.711 26.7999 173.609 26.7999C167.789 26.7999 163.325 31.2926 163.325 39.7266V59.1172H154.562V19.7057Z" fill="black"/>
<path d="M227.665 33.5791L218.975 59.1173H210.685L197.289 19.7058H206.535L215.145 46.821L224.312 19.7058H231.01L240.097 46.821L248.786 19.7058H258.113L244.721 59.1173H236.429L227.665 33.5791Z" fill="black"/>
<path d="M282.751 59.9057C270.868 59.9057 262.335 51.2307 262.335 39.4115C262.335 27.7455 270.546 18.9172 282.822 18.9172C295.018 18.9172 303.548 28.1397 302.752 41.5397H271.028C271.347 47.5303 275.97 52.2591 283.066 52.2591C287.451 52.2591 291.277 50.5251 293.111 46.7418H302.278C300.045 54.1513 292.87 59.9057 282.751 59.9057ZM271.347 35.3911H293.345C291.99 29.011 287.446 26.1695 282.583 26.1695C277.087 26.1695 272.543 29.3224 271.347 35.3911Z" fill="black"/>
<path d="M312.56 0H321.328V59.1173H312.56V0Z" fill="black"/>
<path d="M333.923 0H342.692V59.1173H333.923V0Z" fill="black"/>
<path d="M21.5695 60H12.9417V51.3484H21.5695V60Z" fill="#F5BF00"/>
<path d="M21.5695 34.4778H12.9417V25.8262H21.5695V34.4778Z" fill="#69CDAC"/>
<path d="M8.6278 22.4736H0V13.8221H8.6278V22.4736Z" fill="#54A3E7"/>
<path d="M21.5695 10.4697H12.9417V1.81815H21.5695V10.4697Z" fill="#F56B3D"/>
<path fill-rule="evenodd" clip-rule="evenodd" d="M34.609 37.1504C32.9634 35.6843 30.1836 34.4777 25.8834 34.4777V25.8262C31.7854 25.8262 36.7707 27.5033 40.3395 30.6828C43.9376 33.8884 45.7274 38.3035 45.7274 42.9671C45.7274 47.676 43.8623 52.0657 40.2456 55.2252C36.6647 58.3533 31.6973 59.9999 25.8834 59.9999V51.3483C30.1054 51.3483 32.903 50.1653 34.5782 48.7018C36.2176 47.2697 37.0996 45.3059 37.0996 42.9671C37.0996 40.5829 36.2254 38.5905 34.609 37.1504Z" fill="black"/>
<path fill-rule="evenodd" clip-rule="evenodd" d="M36.0134 17.9317H44.7297C43.7585 8.42718 35.753 1.81812 25.8834 1.81812V10.4697C31.4398 10.4697 35.1682 13.732 36.0134 17.9317Z" fill="black"/>
<path d="M375.33 10C375.33 4.43396 370.908 0 365.357 0C359.853 0 355.385 4.43396 355.385 10C355.385 15.5189 359.853 20 365.357 20C370.908 20 375.33 15.5189 375.33 10ZM373.824 10C373.824 14.6698 370.014 18.4906 365.357 18.4906C360.653 18.4906 356.89 14.6698 356.89 10C356.89 5.28302 360.653 1.50943 365.357 1.50943C370.014 1.50943 373.824 5.28302 373.824 10ZM370.061 15.7547L367.004 11.1792C367.662 11.1792 369.92 10.3302 369.92 7.78302C369.92 5.66038 368.133 4.29245 366.204 4.29245H361.547V15.7547H363.146V11.2264H365.122L368.085 15.7547H370.061ZM368.274 7.78302C368.274 8.96226 367.192 9.76415 366.204 9.76415H363.146V5.70755H366.204C367.192 5.70755 368.274 6.50943 368.274 7.78302Z" fill="black"/>
</svg>
